<?xml version="1.0" encoding="utf-8"?>
<svg id="chair" viewBox="1.341 23.767 61.765 36.806" xmlns="http://www.w3.org/2000/svg">
  <path d="M39,42H25l.69-12.64A3.52,3.52,0,0,1,29.19,26h5.62a3.52,3.52,0,0,1,3.5,3.36Z" style="fill:none;stroke:#0a1c28;stroke-linejoin:round;stroke-width:2px"/>
  <rect height="4" rx="2" style="fill:none;stroke:#0a1c28;stroke-linecap:round;stroke-linejoin:round;stroke-width:2px" width="18" x="23" y="46"/>
  <line style="fill:none;stroke:#0a1c28;stroke-linejoin:round;stroke-width:2px" x1="26" x2="26" y1="50" y2="59"/>
  <line style="fill:none;stroke:#0a1c28;stroke-linejoin:round;stroke-width:2px" x1="38" x2="38" y1="50" y2="59"/>
  <line style="fill:none;stroke:#0a1c28;stroke-linejoin:round;stroke-width:2px" x1="27" x2="27" y1="42" y2="46"/>
  <line style="fill:none;stroke:#0a1c28;stroke-linejoin:round;stroke-width:2px" x1="37" x2="37" y1="42" y2="46"/>
  <path d="M19,42H5l.69-12.64A3.52,3.52,0,0,1,9.19,26h5.62a3.52,3.52,0,0,1,3.5,3.36Z" style="fill:none;stroke:#0a1c28;stroke-linejoin:round;stroke-width:2px"/>
  <rect height="4" rx="2" style="fill:none;stroke:#0a1c28;stroke-linecap:round;stroke-linejoin:round;stroke-width:2px" width="18" x="3" y="46"/>
  <line style="fill:none;stroke:#0a1c28;stroke-linejoin:round;stroke-width:2px" x1="6" x2="6" y1="50" y2="59"/>
  <line style="fill:none;stroke:#0a1c28;stroke-linejoin:round;stroke-width:2px" x1="18" x2="18" y1="50" y2="59"/>
  <line style="fill:none;stroke:#0a1c28;stroke-linejoin:round;stroke-width:2px" x1="7" x2="7" y1="42" y2="46"/>
  <line style="fill:none;stroke:#0a1c28;stroke-linejoin:round;stroke-width:2px" x1="17" x2="17" y1="42" y2="46"/>
  <path d="M45,42H59l-.69-12.64A3.52,3.52,0,0,0,54.81,26H49.19a3.52,3.52,0,0,0-3.5,3.36Z" style="fill:none;stroke:#0a1c28;stroke-linejoin:round;stroke-width:2px"/>
  <rect height="4" rx="2" style="fill:none;stroke:#0a1c28;stroke-linecap:round;stroke-linejoin:round;stroke-width:2px" width="18" x="43" y="46"/>
  <line style="fill:none;stroke:#0a1c28;stroke-linejoin:round;stroke-width:2px" x1="58" x2="58" y1="50" y2="59"/>
  <line style="fill:none;stroke:#0a1c28;stroke-linejoin:round;stroke-width:2px" x1="46" x2="46" y1="50" y2="59"/>
  <line style="fill:none;stroke:#0a1c28;stroke-linejoin:round;stroke-width:2px" x1="57" x2="57" y1="42" y2="46"/>
  <line style="fill:none;stroke:#0a1c28;stroke-linejoin:round;stroke-width:2px" x1="47" x2="47" y1="42" y2="46"/>
</svg>